<svg xmlns="http://www.w3.org/2000/svg" xmlns:xlink="http://www.w3.org/1999/xlink" xmlns:xodm="http://www.corel.com/coreldraw/odm/2003" xml:space="preserve" version="1.1" style="shape-rendering:geometricPrecision; text-rendering:geometricPrecision; image-rendering:optimizeQuality; fill-rule:evenodd; clip-rule:evenodd" viewBox="3296.45 12513.24 14392.81 4674.58">
 <defs>
  <style type="text/css">
   <![CDATA[
    .fil0 {fill:#6E4C98}
    .fil2 {fill:#FFB700}
    .fil1 {fill:#6E4C98;fill-rule:nonzero}
   ]]>
  </style>
 </defs>
 <g id="Layer_x0020_1">
  <metadata id="CorelCorpID_0Corel-Layer"/>
  <g id="_2334614906832">
   <path class="fil0" d="M3974.68 13354.87c-373.04,0 -678.23,305.19 -678.23,678.22l0 180.16 328.8 0 0 -180.16c0,-192.19 157.23,-349.42 349.43,-349.42l180.15 0 0 -328.8 -180.15 0z"/>
   <path class="fil0" d="M6451.17 17187.82c373.04,0 678.23,-305.19 678.23,-678.23l0 -180.15 -328.8 0 0 180.15c0,192.19 -157.23,349.43 -349.43,349.43l-180.15 0 0 328.8 180.15 0z"/>
   <path class="fil1" d="M4905.39 15154.42c-149.88,0 -271.84,-121.43 -271.84,-271.74 0,-149.95 121.96,-271.63 271.84,-271.63 150.24,0 271.85,121.68 271.85,271.63 0,150.31 -121.61,271.74 -271.85,271.74zm307.55 -813.12c-513.29,0 -930.06,416.32 -930.06,929.92 0,513.61 416.77,930.14 930.06,930.14 513.64,0 930.07,-416.53 930.07,-930.14 0,-513.6 -416.43,-929.92 -930.07,-929.92z"/>
   <path class="fil2" d="M6965 12514.52c0,212.66 -67.45,410.33 -181.99,572.65 -62.41,114.52 -147.7,197.48 -264.9,257.99 -158.03,105.32 -347.49,166.84 -550.59,166.84l-8.54 0 0 7.27 8.54 0c225.29,0 433.76,75.69 601.22,202.87 80.02,50.07 143.22,113.27 193.29,193.29 127.24,167.49 202.97,376 202.97,601.32l0 8.54 8.54 0 0 -8.54c0,-199.41 59.3,-385.62 161.12,-541.92 61.88,-123.71 147.86,-212.53 268.22,-276.74 161.48,-112.62 357.45,-178.82 568.14,-178.82l0 -7.27c-192.01,0 -371.77,-54.98 -524.38,-149.95 -153.49,-69.94 -256.25,-173.26 -325.76,-327.4 -93.37,-151.69 -147.34,-329.92 -147.34,-520.13l0 -1.28 -8.54 0 0 1.28z"/>
   <path class="fil2" d="M6255.56 12513.62c0,62.69 -19.88,120.97 -53.65,168.83 -18.4,33.76 -43.54,58.21 -78.09,76.05 -46.59,31.05 -102.45,49.19 -162.33,49.19l-2.51 0 0 2.14 2.51 0c66.42,0 127.88,22.32 177.25,59.81 23.59,14.76 42.22,33.4 56.99,56.99 37.51,49.38 59.83,110.84 59.83,177.27l0 2.52 2.52 0 0 -2.52c0,-58.78 17.49,-113.68 47.5,-159.76 18.25,-36.47 43.59,-62.66 79.08,-81.59 47.6,-33.2 105.38,-52.72 167.49,-52.72l0 -2.14c-56.6,0 -109.6,-16.21 -154.59,-44.21 -45.25,-20.62 -75.55,-51.08 -96.04,-96.52 -27.53,-44.72 -43.44,-97.26 -43.44,-153.34l0 -0.38 -2.52 0 0 0.38z"/>
   <path class="fil0" d="M3974.68 17187.82c-373.04,0 -678.23,-305.19 -678.23,-678.23l0 -180.15 328.8 0 0 180.15c0,192.19 157.23,349.43 349.43,349.43l180.15 0 0 328.8 -180.15 0z"/>
   <path class="fil1" d="M9815.77 16237.71l-693.1 -1011.47 664.93 -960.75 -512.78 0 -602.94 856.51 0 -856.51 -450.79 0 0 1972.22 450.79 0 0 -912.86 631.11 912.86 512.78 0zm976.83 -1408.73l0 132.42c-92.98,-107.06 -231.03,-171.86 -419.8,-171.86 -369.09,0 -673.38,324 -673.38,743.8 0,419.81 304.29,743.81 673.38,743.81 188.77,0 326.82,-64.8 419.8,-171.86l0 132.42 422.62 0 0 -1408.73 -422.62 0zm-335.28 1048.1c-194.4,0 -335.28,-132.43 -335.28,-343.74 0,-211.3 140.88,-343.73 335.28,-343.73 194.41,0 335.28,132.43 335.28,343.73 0,211.31 -140.87,343.74 -335.28,343.74zm2571.52 -1087.54c-200.04,0 -329.64,73.25 -408.53,185.95 -78.89,-118.34 -202.86,-185.95 -369.09,-185.95 -188.77,0 -312.74,73.25 -377.54,169.04l0 -129.6 -422.62 0 0 1408.73 422.62 0 0 -794.52c0,-166.23 78.89,-264.84 219.76,-264.84 135.24,0 202.86,90.15 202.86,231.03l0 828.33 422.62 0 0 -794.52c0,-166.23 78.89,-264.84 219.76,-264.84 135.24,0 202.86,90.15 202.86,231.03l0 828.33 422.62 0 0 -864.96c0,-352.18 -211.31,-583.21 -535.32,-583.21zm1128.97 912.85l1000.2 0c11.27,-53.53 16.9,-109.88 16.9,-169.05 0,-425.43 -304.28,-743.8 -715.63,-743.8 -445.16,0 -749.45,324 -749.45,743.8 0,419.81 298.65,743.81 780.44,743.81 267.66,0 476.15,-98.61 614.21,-290.19l-338.1 -194.41c-56.35,61.99 -154.96,107.06 -270.47,107.06 -154.97,0 -284.57,-50.71 -338.1,-197.22zm-8.45 -315.55c39.44,-143.69 146.51,-222.58 307.1,-222.58 126.79,0 253.57,59.16 298.65,222.58l-605.75 0zm1613.58 -307.11l0 -250.75 -422.62 0 0 1408.73 422.62 0 0 -636.75c0,-278.92 247.94,-349.36 422.62,-321.19l0 -478.96c-177.5,0 -366.27,90.15 -422.62,278.92zm1179.69 1197.42c414.17,0 746.63,-324 746.63,-743.81 0,-419.8 -332.46,-743.8 -746.63,-743.8 -414.17,0 -746.63,324 -746.63,743.8 0,419.81 332.46,743.81 746.63,743.81zm0 -411.34c-183.13,0 -324.01,-132.43 -324.01,-332.47 0,-200.03 140.88,-332.46 324.01,-332.46 183.14,0 324.01,132.43 324.01,332.46 0,200.04 -140.87,332.47 -324.01,332.47z"/>
  </g>
 </g>
</svg>